<svg width="148" height="207" viewBox="0 0 148 207" fill="none" xmlns="http://www.w3.org/2000/svg">
<path opacity="0.5" d="M103.347 51.9476C95.654 51.7375 87.9445 53.3828 80.8302 56.7527C73.716 60.1228 67.3917 65.1249 62.3596 71.363C57.3274 77.6011 53.7248 84.9042 51.8379 92.6925C49.9512 100.481 49.8315 108.54 51.4885 116.233C53.1455 123.926 56.5343 131.041 61.3851 137.013C66.2361 142.986 72.4167 147.652 79.4366 150.642C86.4565 153.632 94.1233 154.864 101.829 154.24C109.535 153.616 117.068 151.153 123.831 147.046L148.002 191.525C134.383 199.793 119.214 204.752 103.698 206.009C88.1819 207.265 72.7448 204.785 58.6097 198.765C44.4746 192.744 32.0298 183.349 22.2621 171.323C12.4944 159.297 5.67198 144.971 2.33532 129.481C-1.00134 113.991 -0.760524 97.7609 3.03879 82.0786C6.83811 66.3963 14.0918 51.6922 24.2244 39.1313C34.3569 26.5704 47.0901 16.4977 61.4152 9.71188C75.7402 2.92606 91.2635 -0.386678 106.755 0.0361557L103.347 51.9476Z" fill="#C7DFFE"/>
</svg>
